Coordinates
version=1
nRows=22
nColumns=24
inDegrees=yes

Units are S.I. units (second, meters, Newtons, ...)
Angles are in degrees.

endheader
time	pelvis_tilt	pelvis_list	pelvis_rotation	pelvis_tx	pelvis_ty	pelvis_tz	hip_flexion_r	hip_adduction_r	hip_rotation_r	knee_angle_r	ankle_angle_r	subtalar_angle_r	mtp_angle_r	hip_flexion_l	hip_adduction_l	hip_rotation_l	knee_angle_l	ankle_angle_l	subtalar_angle_l	mtp_angle_l	lumbar_extension	lumbar_bending	lumbar_rotation
      1.32000000	     -9.48584872	     -0.51551225	      5.86191071	     -0.23238474	      1.27818498	     -0.89104421	     32.99089533	      0.85650389	      2.32017007	    -19.98761265	     -0.26243108	    -23.16796790	      1.44751548	      1.03179676	      7.68895372	     14.30704142	     -2.22364762	      5.23591956	    -15.36365891	      2.95411247	     -0.10791290	     -0.74788465	    -10.07522703
      1.32500000	     -9.53337233	     -0.31083954	      5.52374918	     -0.22598770	      1.27723066	     -0.89036917	     33.00466839	      0.93488281	      3.24051761	    -18.34441120	     -0.45593726	    -23.23509779	      1.24979612	      0.44601410	      7.81215525	     13.56387248	     -1.94830679	      5.61362608	    -14.79114192	      3.23078861	      0.03213082	     -0.98763340	     -9.79468624
      1.33000000	     -9.61649766	     -0.11187534	      5.20354445	     -0.21956800	      1.27620430	     -0.88969721	     33.00988075	      0.99397972	      4.14419542	    -16.64630434	     -0.78408158	    -23.25153974	      1.06100193	     -0.05388346	      7.95003241	     12.78324217	     -1.76810102	      6.07690990	    -14.10241480	      3.57236923	      0.22288496	     -1.23507303	     -9.48058556
      1.33500000	     -9.68690538	      0.11841481	      4.87619334	     -0.21312621	      1.27511433	     -0.88902842	     32.99913015	      1.01324441	      5.05173264	    -14.99458594	     -0.97643363	    -23.07536946	      0.93533513	     -0.59807976	      8.12585321	     12.05333098	     -1.53585354	      6.40717824	    -13.54185190	      3.83952075	      0.40730393	     -1.50449319	     -9.16787466
      1.34000000	     -9.80227900	      0.32193893	      4.56971624	     -0.20664608	      1.27394043	     -0.88835832	     33.00559709	      1.03486825	      5.92175248	    -13.32454194	     -1.30251937	    -22.90432050	      0.77378291	     -1.04018648	      8.29048252	     11.23795708	     -1.40616772	      6.93146606	    -12.75887996	      4.22634468	      0.65128886	     -1.74695311	     -8.90188048
      1.34500000	     -9.90003144	      0.55671041	      4.26378889	     -0.20019906	      1.27272569	     -0.88771182	     33.01393346	      1.01317325	      6.76778197	    -11.74584458	     -1.43741317	    -22.50270123	      0.68226498	     -1.53870411	      8.49294703	     10.53918717	     -1.19808127	      7.21070755	    -12.27084923	      4.46479959	      0.86936646	     -2.02093010	     -8.58128636
      1.35000000	    -10.03387337	      0.76232027	      3.97074370	     -0.19370454	      1.27146656	     -0.88705783	     33.04324699	      1.00474481	      7.56847714	    -10.18505420	     -1.71210111	    -22.11563251	      0.51392374	     -1.92447104	      8.68019398	      9.69936828	     -1.13961275	      7.75421268	    -11.41636202	      4.88685116	      1.14532495	     -2.25649232	     -8.32912014
      1.35500000	    -10.15806434	      0.98262745	      3.67612019	     -0.18725753	      1.27017912	     -0.88641852	     33.08925245	      0.97861959	      8.36224117	     -8.73120949	     -1.86310198	    -21.59144377	      0.37851505	     -2.34918076	      8.88581336	      8.95913106	     -1.01416200	      8.13830536	    -10.76932059	      5.20900790	      1.39745738	     -2.49944466	     -8.06380428
      1.36000000	    -10.29843812	      1.17483086	      3.40015202	     -0.18076749	      1.26888025	     -0.88582003	     33.14500387	      0.96225645	      9.06052017	     -7.33013746	     -2.03686311	    -21.02153301	      0.21870142	     -2.72361051	      9.07434508	      8.18350338	     -0.95166442	      8.55791299	    -10.09026814	      5.56336816	      1.68468478	     -2.70773768	     -7.78155996
      1.36500000	    -10.42806101	      1.37247230	      3.12657396	     -0.17431344	      1.26757113	     -0.88522480	     33.21111541	      0.94095407	      9.75036895	     -6.03806320	     -2.16356043	    -20.39327197	      0.07429228	     -3.10852861	      9.27263433	      7.44680818	     -0.88399474	      8.93133868	     -9.45219010	      5.89218916	      1.95089669	     -2.91275846	     -7.52602662
      1.37000000	    -10.56378333	      1.54512226	      2.85944599	     -0.16782024	      1.26626089	     -0.88469314	     33.29259321	      0.93937519	     10.35708420	     -4.84344370	     -2.28002522	    -19.75629506	     -0.00160019	     -3.49524486	      9.45675033	      6.77425585	     -0.79721133	      9.15998415	     -9.09426549	      6.09509490	      2.24123146	     -3.07824527	     -7.21929500
      1.37500000	    -10.69587941	      1.72450345	      2.61981654	     -0.16140067	      1.26494374	     -0.88411535	     33.39821292	      0.92828208	     10.95190012	     -3.78434980	     -2.40023078	    -19.08805551	     -0.18374915	     -3.82063140	      9.64360845	      6.00779609	     -0.82842510	      9.65328677	     -8.24375745	      6.53703327	      2.49266991	     -3.25195518	     -7.03403353
      1.38000000	    -10.83428228	      1.87464290	      2.40033039	     -0.15494728	      1.26364810	     -0.88360824	     33.52027979	      0.93939559	     11.44756852	     -2.84137738	     -2.53340004	    -18.45949872	     -0.34836309	     -4.13531376	      9.80979654	      5.32870764	     -0.86375750	     10.01021340	     -7.69017963	      6.88566144	      2.76895900	     -3.38695645	     -6.81767405
      1.38500000	    -10.96966234	      2.01964111	      2.16783267	     -0.14850114	      1.26234737	     -0.88311439	     33.67512269	      0.97561380	     11.94563551	     -2.06119021	     -2.61722260	    -17.87016747	     -0.42229602	     -4.47812518	      9.97550323	      4.72618517	     -0.84321148	     10.21640665	     -7.37159953	      7.10214246	      3.03949209	     -3.50273732	     -6.56620112
      1.39000000	    -11.11100271	      2.15635856	      1.96175609	     -0.14206514	      1.26106192	     -0.88260657	     33.86795984	      1.02403650	     12.38967699	     -1.45096387	     -2.68937572	    -17.28754881	     -0.52993057	     -4.76663467	     10.13102430	      4.07962526	     -0.91109978	     10.54338689	     -6.84526152	      7.42926876	      3.31157924	     -3.61309457	     -6.36202621
      1.39500000	    -11.23412747	      2.28174773	      1.77753155	     -0.13566093	      1.25981928	     -0.88213668	     34.06638105	      1.08413934	     12.80116061	     -0.99806439	     -2.75745259	    -16.76851102	     -0.65842539	     -5.05450154	     10.27455518	      3.48817585	     -1.01140579	     10.84751390	     -6.35680245	      7.76601160	      3.54822079	     -3.70156866	     -6.20200780
      1.40000000	    -11.35662927	      2.40299299	      1.62760504	     -0.12929367	      1.25861200	     -0.88165622	     34.29163642	      1.14903871	     13.17786304	     -0.71058599	     -2.82508514	    -16.32031243	     -0.81896784	     -5.30631777	     10.40844143	      2.94566002	     -1.17467762	     11.15547962	     -5.87288953	      8.14090287	      3.76895816	     -3.79882205	     -6.10508749
      1.40500000	    -11.47018580	      2.49379088	      1.47918692	     -0.12289169	      1.25744102	     -0.88121170	     34.53239060	      1.25786774	     13.51764991	     -0.58902688	     -2.90665256	    -15.94363993	     -0.98955645	     -5.57421820	     10.51088618	      2.44001941	     -1.32344487	     11.42013251	     -5.49046444	      8.49834795	      3.98720779	     -3.85084337	     -5.96913390
      1.41000000	    -11.58466195	      2.59455186	      1.35309497	     -0.11651770	      1.25632013	     -0.88078937	     34.79568872	      1.35834647	     13.85560775	     -0.61802074	     -2.95985267	    -15.63442353	     -1.02713815	     -5.82771261	     10.62655022	      2.04767854	     -1.49035190	     11.51321966	     -5.38011992	      8.64187681	      4.19982852	     -3.92040210	     -5.83352650
      1.41500000	    -11.72474147	      2.68863227	      1.23347914	     -0.11015178	      1.25518620	     -0.88032498	     35.14810921	      1.48991035	     14.22374871	     -0.88211032	     -2.95563820	    -15.37392978	     -1.13870574	     -6.02767420	     10.72205992	      1.62315743	     -1.70100816	     11.73187155	     -4.99834497	      8.94828638	      4.43001601	     -3.97807007	     -5.74458768
      1.42000000	    -11.82090939	      2.76167233	      1.14580321	     -0.10376606	      1.25415672	     -0.87989590	     35.43638365	      1.62923415	     14.54477680	     -1.22747379	     -3.00161637	    -15.18038945	     -1.27743542	     -6.25109485	     10.79021094	      1.22651277	     -1.95673236	     11.90629596	     -4.67575161	      9.25662829	      4.60855996	     -4.01605824	     -5.68432497
      1.42500000	    -11.91230249	      2.82374565	      1.08823373	     -0.09736572	      1.25318986	     -0.87949812	     35.72468117	      1.77242963	     14.83854541	     -1.69070325	     -3.06490473	    -15.04748635	     -1.41450100	     -6.45793505	     10.84035739	      0.89757761	     -2.25227957	     12.04328427	     -4.40887530	      9.55255801	      4.77855702	     -4.04294420	     -5.66446321
